<?xml version="1.0" encoding="iso-8859-1"?>
<!-- Generator: Adobe Illustrator 24.0.1, SVG Export Plug-In . SVG Version: 6.00 Build 0)  -->
<svg version="1.1" xmlns="http://www.w3.org/2000/svg" xmlns:xlink="http://www.w3.org/1999/xlink" x="0px" y="0px"
	 viewBox="0 0 70 70" style="enable-background:new 0 0 70 70;" xml:space="preserve">
<g id="Repairs">
	<g>
		<path style="fill:#C17601;" d="M1.025,8.612l7.626-7.626l16.292,12.479l1.56,9.879l14.602,14.537l0,0
			c2.344-2.344,6.146-2.342,8.487,0.006l15.319,15.361c2.337,2.343,2.334,6.136-0.006,8.475l-3.917,3.917
			c-2.342,2.342-6.139,2.342-8.481,0L37.273,50.406c-2.342-2.342-2.342-6.139,0-8.481l0.352-0.352L22.777,26.724l-9.446-1.127
			L1.025,8.612z"/>
		<path style="fill:#C17601;" d="M56.445,2.849L45.266,14.028c0,0-2.21,5.85,1.95,10.009s9.619,1.04,9.619,1.04L67.3,14.613
			c0,0,3.055,7.085,0.975,12.934s-10.919,9.879-10.919,9.879l-5.655-5.655l-9.034-0.195c0,0-11.625-11.625-11.634-11.634
			c-0.326-0.326,0.093-2.4,0.136-2.795c0.235-2.154,0.734-4.301,1.592-6.295c2.178-5.059,7.093-7.944,12.296-9.08
			C48.492,1.023,53.433,0.482,56.445,2.849z"/>
		<path style="fill:#C17601;" d="M30.577,42.626l-6.76-8.19l-20.38,20.38c-3.25,3.25-3.25,8.507,0,11.757
			c1.632,1.632,3.755,2.441,5.879,2.441c2.138,0,4.275-0.809,5.893-2.441l16.148-16.148C31.357,50.426,28.829,44.374,30.577,42.626z
			 M9.258,63.555c-1.719,0-3.12-1.401-3.12-3.12c0-1.719,1.401-3.12,3.12-3.12s3.12,1.401,3.12,3.12
			C12.378,62.154,10.977,63.555,9.258,63.555z"/>
	</g>
</g>
<g id="Layer_1">
</g>
</svg>
