<?xml version="1.0" encoding="iso-8859-1"?>
<!-- Generator: Adobe Illustrator 24.0.1, SVG Export Plug-In . SVG Version: 6.00 Build 0)  -->
<svg version="1.1" xmlns="http://www.w3.org/2000/svg" xmlns:xlink="http://www.w3.org/1999/xlink" x="0px" y="0px"
	 viewBox="0 0 70 70" style="enable-background:new 0 0 70 70;" xml:space="preserve">
<g id="Electrical">
	<g>
		<path style="fill:#EBCC21;" d="M57.303,23.119c2.076,0,3.759,1.683,3.759,3.759v0c0,2.076-1.683,3.759-3.759,3.759h-1.426v7.517
			c0,9.592-7.776,17.367-17.367,17.367h0v10.487c0,1.652-1.34,2.992-2.992,2.992h0h-1.037h0c-1.652,0-2.992-1.34-2.992-2.992V55.521
			h0c-9.592,0-17.367-7.776-17.367-17.367v-7.517h-1.426c-2.076,0-3.759-1.683-3.759-3.759v0c0-2.076,1.683-3.759,3.759-3.759
			H57.303z"/>
		<path style="fill:#EBCC21;" d="M18.011,19.318V4.683C18.011,2.649,19.66,1,21.694,1h0c2.034,0,3.683,1.649,3.683,3.683v14.634
			H18.011z"/>
		<path style="fill:#EBCC21;" d="M44.277,19.318V4.683C44.277,2.649,45.926,1,47.961,1h0c2.034,0,3.683,1.649,3.683,3.683v14.634
			H44.277z"/>
	</g>
</g>
<g id="Layer_1">
</g>
</svg>
