<?xml version="1.0" encoding="iso-8859-1"?>
<!-- Generator: Adobe Illustrator 24.0.1, SVG Export Plug-In . SVG Version: 6.00 Build 0)  -->
<svg version="1.1" xmlns="http://www.w3.org/2000/svg" xmlns:xlink="http://www.w3.org/1999/xlink" x="0px" y="0px"
	 viewBox="0 0 70 70" style="enable-background:new 0 0 70 70;" xml:space="preserve">
<g id="Tyres">
	<g>
		<path style="fill:#6B6B6B;" d="M23.935,35c0,0.782,0.083,1.545,0.238,2.282l-10.593,3.4c-0.484-1.817-0.763-3.714-0.763-5.682
			c0-6.592,2.905-12.504,7.488-16.573l6.464,9.203C25.012,29.59,23.935,32.167,23.935,35z"/>
		<path style="fill:#6B6B6B;" d="M47.217,16.5l-7.17,8.662c-1.515-0.782-3.226-1.232-5.047-1.232c-2.18,0-4.212,0.646-5.927,1.738
			l-6.396-9.104C26.205,14.2,30.444,12.817,35,12.817C39.514,12.817,43.708,14.177,47.217,16.5z"/>
		
			<ellipse transform="matrix(0.9239 -0.3827 0.3827 0.9239 -10.7048 16.0321)" style="fill:#6B6B6B;" cx="34.947" cy="34.924" rx="8.032" ry="8.032"/>
		<path style="fill:#6B6B6B;" d="M57.183,35c0,1.783-0.23,3.506-0.631,5.164L45.88,36.976c0.117-0.642,0.189-1.3,0.189-1.976
			c0-3.196-1.371-6.075-3.547-8.096l7.083-8.56C54.24,22.412,57.183,28.362,57.183,35z"/>
		<path style="fill:#6B6B6B;" d="M33.493,45.952v11.156c-8.553-0.578-15.795-6.003-18.961-13.562l10.665-3.426
			C26.825,43.224,29.885,45.457,33.493,45.952z"/>
		<path style="fill:#6B6B6B;" d="M55.653,43.043c-3.056,7.816-10.408,13.475-19.146,14.065V45.952
			c3.717-0.51,6.842-2.864,8.432-6.112L55.653,43.043z"/>
		<path style="fill:#6B6B6B;" d="M35,1C16.221,1,1,16.221,1,35c0,18.779,15.221,34,34,34s34-15.221,34-34C69,16.221,53.779,1,35,1z
			 M35,60.198C21.105,60.198,9.802,48.895,9.802,35C9.802,21.105,21.105,9.802,35,9.802c13.895,0,25.198,11.303,25.198,25.198
			C60.198,48.895,48.895,60.198,35,60.198z"/>
		<path style="fill:#FFFFFF;" d="M35,9.802C21.105,9.802,9.802,21.105,9.802,35c0,13.895,11.303,25.198,25.198,25.198
			c13.895,0,25.198-11.303,25.198-25.198C60.198,21.105,48.895,9.802,35,9.802z M35,12.817c4.514,0,8.708,1.36,12.217,3.683
			l-7.17,8.662c-1.515-0.782-3.226-1.232-5.047-1.232c-2.18,0-4.212,0.646-5.927,1.738l-6.396-9.104
			C26.205,14.2,30.444,12.817,35,12.817z M12.817,35c0-6.592,2.905-12.504,7.488-16.573l6.464,9.203
			c-1.757,1.961-2.833,4.537-2.833,7.37c0,0.782,0.083,1.545,0.238,2.282l-10.593,3.4C13.096,38.865,12.817,36.968,12.817,35z
			 M33.493,57.108c-8.553-0.578-15.795-6.003-18.961-13.562l10.665-3.426c1.628,3.105,4.688,5.338,8.296,5.833V57.108z
			 M34.947,42.956c-4.435,0-8.032-3.596-8.032-8.032c0-4.435,3.596-8.032,8.032-8.032s8.032,3.596,8.032,8.032
			C42.979,39.36,39.382,42.956,34.947,42.956z M36.507,57.108V45.952c3.717-0.51,6.842-2.864,8.432-6.112l10.714,3.204
			C52.597,50.859,45.245,56.518,36.507,57.108z M45.88,36.976c0.117-0.642,0.189-1.3,0.189-1.976c0-3.196-1.371-6.075-3.547-8.096
			l7.083-8.56C54.24,22.412,57.183,28.362,57.183,35c0,1.783-0.23,3.506-0.631,5.164L45.88,36.976z"/>
	</g>
</g>
<g id="Layer_1">
</g>
</svg>
