<?xml version="1.0" encoding="iso-8859-1"?>
<!-- Generator: Adobe Illustrator 24.0.1, SVG Export Plug-In . SVG Version: 6.00 Build 0)  -->
<svg version="1.1" xmlns="http://www.w3.org/2000/svg" xmlns:xlink="http://www.w3.org/1999/xlink" x="0px" y="0px"
	 viewBox="0 0 70 70" style="enable-background:new 0 0 70 70;" xml:space="preserve">
<g id="Other">
	<g>
		<path style="fill:#000;" d="M65.945,31.741V14.947c0-5.812-11.919-7.363-18.961-7.363c-2.75,0-5.413,0.198-7.839,0.575
			C38.866,2.517,27.156,1,20.197,1c-7.042,0-18.96,1.551-18.96,7.363v49.652c0,5.812,11.918,7.363,18.96,7.363
			c3.067,0,6.053-0.249,8.707-0.721C33.128,67.5,38.039,69,43.168,69c14.113,0,25.595-11.482,25.595-25.595
			C68.763,39.316,67.78,35.324,65.945,31.741z M5.487,43.067c3.104,1.413,7.558,2.196,12.169,2.405
			c0.166,2.104,0.588,4.153,1.26,6.132c-8.337-0.198-12.903-2.29-13.429-3.195V43.067z M5.487,33.383
			c3.671,1.639,9.032,2.29,13.246,2.411c-0.55,1.761-0.903,3.573-1.059,5.426c-7.649-0.362-11.685-2.28-12.187-3.151V33.383z
			 M20.477,31.562c-0.094,0-0.185,0.004-0.28,0.004c-9.152,0-14.158-2.262-14.71-3.212v-5.102c4.112,1.836,10.346,2.433,14.71,2.433
			c1.416,0,3.031-0.064,4.706-0.212C23.155,27.256,21.657,29.299,20.477,31.562z M5.487,13.293
			c4.112,1.836,10.346,2.433,14.71,2.433c4.364,0,10.598-0.597,14.711-2.433v4.93c-0.553,0.95-5.559,3.212-14.711,3.212
			c-9.152,0-14.158-2.262-14.71-3.212V13.293z M56.34,21.462c1.945-0.374,3.801-0.891,5.355-1.584v5.871
			C60.1,24.075,58.296,22.637,56.34,21.462z M61.627,14.947c-0.823,1-5.798,3.113-14.643,3.113c-0.098,0.001-0.196,0-0.294-0.001
			c-1.473-0.204-3.006-0.282-4.472-0.223c-1.065-0.101-2.086-0.24-3.06-0.41v-4.959c2.372-0.413,5.04-0.632,7.826-0.632
			C55.829,11.835,60.804,13.948,61.627,14.947z M20.197,5.25c8.843,0,13.818,2.113,14.643,3.113c-0.825,1-5.8,3.113-14.643,3.113
			S6.379,9.363,5.555,8.363C6.379,7.363,11.355,5.25,20.197,5.25z M5.487,57.92v-4.482c4.112,1.836,10.346,2.433,14.71,2.433
			c0.208,0,0.41-0.003,0.614-0.005c1.025,1.837,2.277,3.545,3.719,5.077c-1.398,0.121-2.853,0.185-4.334,0.185
			C11.062,61.127,6.055,58.873,5.487,57.92z M43.168,64.75c-4.538,0-8.871-1.406-12.532-4.065c-2.822-2.049-5.121-4.782-6.649-7.909
			c-1.436-2.925-2.164-6.078-2.164-9.373c0-3.09,0.646-6.068,1.92-8.853c2.652-5.808,7.697-10.09,13.845-11.749
			c1.461-0.396,2.97-0.634,4.487-0.709c0.213,0.019,0.429,0.035,0.644,0.052c0.127,0.01,0.252,0.022,0.38,0.031
			c0.356,0.025,0.713,0.047,1.073,0.065c0.014,0.001,0.028,0.002,0.042,0.003c0.373,0.019,0.748,0.033,1.124,0.044
			c0.136,0.004,0.272,0.005,0.408,0.008c0.216,0.005,0.433,0.011,0.65,0.013c10.339,1.565,18.117,10.61,18.117,21.099
			C64.513,55.175,54.938,64.75,43.168,64.75z"/>
		<path style="fill:#000;" d="M31.574,56.494v-3.018l0.259-0.267c3.321-3.416,3.778-5.769,3.442-8.251l-0.042-0.307h-3.66v-3.486
			h2.796l-0.111-0.441c-0.32-1.267-0.647-2.81-0.647-4.641c0-6.324,5.444-8.568,10.106-8.568c6.069,0,9.57,2.868,9.606,7.869
			l0.006,0.923H49.73l-0.008-0.909c-0.025-2.841-2.046-4.282-6.005-4.282c-4.06,0-6.39,1.81-6.39,4.967
			c0,1.519,0.366,3.047,0.719,4.525l0.134,0.558h10.144v3.486h-9.463l0.04,0.39c0.184,1.788,0.213,4.483-1.64,7.222l-0.374,0.553
			h16.704v3.678H31.574z"/>
	</g>
</g>
<g id="Layer_1">
</g>
</svg>
