<svg width="261.44" height="396.88" xmlns="http://www.w3.org/2000/svg">

 <g>
  <title>background</title>
  <rect fill="none" id="canvas_background" height="398.88" width="263.44" y="-1" x="-1"/>
 </g>
 <g>
  <title>Layer 1</title>
  <g id="svg_1">
   <g id="svg_2">
    <path id="svg_3" fill="#000" d="m253.44002,-0.00014l-245.44,0c-4.418,0 -8,3.582 -8,8l0,380.88c-0.011,3.191 1.875,6.084 4.8,7.36c1.011,0.431 2.101,0.649 3.2,0.64c1.983,-0.005 3.893,-0.746 5.36,-2.08l117.36,-106.8l117.36,106.8c3.28,2.96 8.339,2.701 11.299,-0.579c1.322,-1.465 2.056,-3.367 2.061,-5.341l0,-380.88c0,-4.418 -3.582,-8 -8,-8zm-117.36,271.28c-3.057,-2.797 -7.743,-2.797 -10.8,0l-109.28,99.52l0,-354.8l229.44,0l0,354.8l-109.36,-99.52z"/>
   </g>
  </g>
  <g id="svg_4">
   <g id="svg_5">
    <path fill="#fdbf2d" stroke-width="0" id="svg_6" d="m216.73431,111.52789c-1.232,-1.28 -2.856,-2.113 -4.614,-2.368l-51.2,-7.44l-23.2,-46c-1.971,-3.954 -6.774,-5.562 -10.729,-3.591c-1.555,0.775 -2.816,2.036 -3.591,3.591l-22.88,46.4l-51.2,7.44c-4.372,0.634 -7.403,4.693 -6.768,9.066c0.255,1.758 1.088,3.382 2.368,4.614l37.28,35.68l-8.48,51.36c-0.724,4.359 2.222,8.479 6.58,9.203c1.716,0.285 3.478,0.003 5.02,-0.803l45.76,-24l45.76,24c3.915,2.048 8.749,0.535 10.797,-3.38c0.806,-1.541 1.088,-3.304 0.803,-5.02l-8.96,-51.36l37.04,-36.08c3.183,-3.064 3.279,-8.129 0.214,-11.312zm-51.414,39.392c-1.879,1.825 -2.746,4.455 -2.32,7.04l6.72,39.04l-35.2,-18.48c-2.329,-1.223 -5.111,-1.223 -7.44,0l-35.12,18.48l6.72,-39.12c0.426,-2.585 -0.441,-5.215 -2.32,-7.04l-28.4,-27.68l39.28,-6.16c2.602,-0.391 4.845,-2.036 6,-4.4l17.6,-35.6l17.6,35.6c1.155,2.364 3.398,4.009 6,4.4l39.28,5.68l-28.4,28.24z"/>
   </g>
  </g>
  <path  id="svg_8" d="m41.8189,115.4412l67.60847,0l20.89154,-61.87866l20.89155,61.87866l67.60845,0l-54.6963,38.24268l20.89262,61.87866l-54.69632,-38.24372l-54.69631,38.24372l20.89262,-61.87866l-54.69632,-38.24268z" fill="#fdbf2d"/>
 </g>
</svg>