<?xml version="1.0" encoding="iso-8859-1"?>
<!-- Generator: Adobe Illustrator 24.0.1, SVG Export Plug-In . SVG Version: 6.00 Build 0)  -->
<svg version="1.1" xmlns="http://www.w3.org/2000/svg" xmlns:xlink="http://www.w3.org/1999/xlink" x="0px" y="0px"
	 viewBox="0 0 70 70" style="enable-background:new 0 0 70 70;" xml:space="preserve">
<g id="Wifi">
	<g>
		<path d="M2.134,21.415c-1.513,1.513-1.513,3.965,0,5.478c1.513,1.513,3.965,1.513,5.478,0c15.103-15.102,39.674-15.101,54.776,0
			c1.513,1.513,3.965,1.513,5.478,0c1.513-1.513,1.513-3.965,0-5.478C49.744,3.293,20.256,3.293,2.134,21.415z"/>
		<path d="M13.09,32.37c-1.513,1.513-1.513,3.965,0,5.478c1.512,1.512,3.965,1.512,5.478,0c9.061-9.062,23.804-9.061,32.865,0
			c1.513,1.512,3.965,1.512,5.477,0c1.513-1.513,1.513-3.965,0-5.478C44.829,20.289,25.171,20.289,13.09,32.37z"/>
		<path d="M45.955,48.803c1.513-1.513,1.513-3.965,0-5.478c-6.041-6.041-15.87-6.041-21.91,0c-1.513,1.512-1.513,3.965,0,5.478
			c1.513,1.513,3.965,1.513,5.477,0c3.021-3.021,7.935-3.02,10.955,0C41.99,50.315,44.443,50.315,45.955,48.803z"/>
		<circle cx="34.607" cy="57.093" r="5.083"/>
	</g>
</g>
<g id="Layer_1">
</g>
</svg>
