<?xml version="1.0" encoding="iso-8859-1"?>
<!-- Generator: Adobe Illustrator 24.0.1, SVG Export Plug-In . SVG Version: 6.00 Build 0)  -->
<svg version="1.1" xmlns="http://www.w3.org/2000/svg" xmlns:xlink="http://www.w3.org/1999/xlink" x="0px" y="0px"
	 viewBox="0 0 70 70" style="enable-background:new 0 0 70 70;" xml:space="preserve">
<g id="Waiting_Area">
	<g>
		<g>
			<path d="M13.855,28.792H9.599c-2.806,0-5.08,2.275-5.08,5.08v11.434c0,0.737,0.598,1.335,1.335,1.335h16.004
				c0.737,0,1.335-0.598,1.335-1.335V33.873c0-2.806-2.275-5.08-5.08-5.08H13.855z"/>
			<path d="M20.583,53.644H7.127c-1.441,0-2.609-1.168-2.609-2.609v0c0-1.441,1.168-2.609,2.609-2.609h13.456
				c1.441,0,2.609,1.168,2.609,2.609v0C23.192,52.476,22.024,53.644,20.583,53.644z"/>
			<path d="M35,28.792h-4.256c-2.806,0-5.08,2.275-5.08,5.08v11.434c0,0.737,0.598,1.335,1.335,1.335h16.004
				c0.737,0,1.335-0.598,1.335-1.335V33.873c0-2.806-2.275-5.08-5.08-5.08H35z"/>
			<path d="M41.728,53.644H28.272c-1.441,0-2.609-1.168-2.609-2.609v0c0-1.441,1.168-2.609,2.609-2.609h13.456
				c1.441,0,2.609,1.168,2.609,2.609v0C44.337,52.476,43.169,53.644,41.728,53.644z"/>
			<path d="M56.145,28.792h-4.256c-2.806,0-5.08,2.275-5.08,5.08v11.434c0,0.737,0.598,1.335,1.335,1.335h16.004
				c0.737,0,1.335-0.598,1.335-1.335V33.873c0-2.806-2.275-5.08-5.08-5.08H56.145z"/>
			<path d="M62.873,53.644H49.417c-1.441,0-2.609-1.168-2.609-2.609v0c0-1.441,1.168-2.609,2.609-2.609h13.456
				c1.441,0,2.609,1.168,2.609,2.609v0C65.482,52.476,64.314,53.644,62.873,53.644z"/>
		</g>
		<rect x="1.429" y="55.567" width="67.142" height="3.295"/>
		<g>
			<polygon points="6.166,64.354 6.166,60.269 5.136,60.269 4.107,60.269 4.107,64.354 1,67.461 5.136,67.461 9.273,67.461 			"/>
			<polygon points="26.075,64.354 26.075,60.269 25.045,60.269 24.016,60.269 24.016,64.354 20.909,67.461 25.045,67.461 
				29.182,67.461 			"/>
			<polygon points="45.984,64.354 45.984,60.269 44.955,60.269 43.925,60.269 43.925,64.354 40.818,67.461 44.955,67.461 
				49.091,67.461 			"/>
			<polygon points="65.893,64.354 65.893,60.269 64.864,60.269 63.834,60.269 63.834,64.354 60.727,67.461 64.864,67.461 69,67.461 
							"/>
		</g>
		<g>
			<path d="M35.373,5.376c-4.137,0-7.503,3.362-7.503,7.499s3.366,7.499,7.503,7.499s7.499-3.362,7.499-7.499
				S39.51,5.376,35.373,5.376z M37.685,15.187c-0.087,0.091-0.2,0.132-0.317,0.132c-0.113,0-0.227-0.042-0.317-0.132l-1.995-1.995
				c-0.083-0.083-0.132-0.2-0.132-0.317V8.523c0-0.246,0.204-0.45,0.45-0.45c0.249,0,0.45,0.204,0.45,0.45v4.167l1.862,1.862
				C37.862,14.73,37.862,15.014,37.685,15.187z"/>
			<path d="M35.373,2.539c-5.708,0-10.336,4.628-10.336,10.336s4.628,10.336,10.336,10.336s10.336-4.628,10.336-10.336
				S41.081,2.539,35.373,2.539z M35.373,21.273c-4.632,0-8.398-3.766-8.398-8.398s3.766-8.398,8.398-8.398s8.398,3.766,8.398,8.398
				S40.004,21.273,35.373,21.273z"/>
			<path style="fill:#FFFFFF;" d="M35.373,4.477c-4.632,0-8.398,3.766-8.398,8.398s3.766,8.398,8.398,8.398s8.398-3.766,8.398-8.398
				S40.004,4.477,35.373,4.477z M35.373,20.374c-4.137,0-7.503-3.362-7.503-7.499s3.366-7.499,7.503-7.499s7.499,3.362,7.499,7.499
				S39.51,20.374,35.373,20.374z"/>
			<path style="fill:#FFFFFF;" d="M37.685,15.187c-0.087,0.091-0.2,0.132-0.317,0.132c-0.113,0-0.227-0.042-0.317-0.132
				l-1.995-1.995c-0.083-0.083-0.132-0.2-0.132-0.317V8.523c0-0.246,0.204-0.45,0.45-0.45c0.249,0,0.45,0.204,0.45,0.45v4.167
				l1.862,1.862C37.862,14.73,37.862,15.014,37.685,15.187z"/>
		</g>
	</g>
</g>
<g id="Layer_1">
</g>
</svg>
