<?xml version="1.0" standalone="no"?>
<!DOCTYPE svg PUBLIC "-//W3C//DTD SVG 20010904//EN"
 "http://www.w3.org/TR/2001/REC-SVG-20010904/DTD/svg10.dtd">
<svg version="1.0" xmlns="http://www.w3.org/2000/svg"
 width="400.000000pt" height="378.000000pt" viewBox="0 0 400.000000 378.000000"
 preserveAspectRatio="xMidYMid meet">
<metadata>
Created by potrace 1.16, written by Peter Selinger 2001-2019
</metadata>
<g transform="translate(0.000000,378.000000) scale(0.100000,-0.100000)"
fill="#f3f3f3" stroke="none">
<path d="M0 1890 l0 -1890 2000 0 2000 0 0 1890 0 1890 -2000 0 -2000 0 0
-1890z m1410 1125 c90 -154 180 -309 200 -345 20 -36 63 -110 95 -165 32 -55
109 -190 173 -300 63 -110 116 -204 119 -208 6 -9 76 106 198 323 23 41 72
127 110 190 37 63 90 153 117 200 26 47 52 92 57 100 6 8 33 56 62 105 54 93
125 213 190 323 37 63 38 63 52 40 30 -50 121 -205 145 -248 14 -25 36 -62 49
-82 12 -21 23 -40 23 -42 0 -2 33 -60 73 -128 91 -151 254 -433 294 -508 17
-30 63 -111 103 -180 40 -69 84 -145 98 -170 14 -25 34 -58 44 -75 10 -16 18
-33 18 -37 0 -5 -343 -8 -761 -8 l-761 0 16 -25 c16 -24 179 -307 234 -405 14
-25 36 -62 49 -82 12 -21 23 -39 23 -42 0 -3 46 -82 90 -156 26 -44 189 -324
220 -380 20 -36 47 -83 60 -105 13 -22 34 -59 48 -82 l24 -43 -872 0 -872 0
24 43 c36 61 56 96 147 251 44 76 81 140 81 142 0 3 17 33 39 67 21 34 72 121
113 192 41 72 93 161 116 199 23 37 42 69 42 71 0 2 32 58 149 258 28 49 51
90 51 93 0 2 -342 5 -760 6 l-761 3 39 65 c42 71 133 229 192 330 20 36 78
135 127 220 50 85 100 171 110 190 11 19 35 60 53 90 18 30 42 71 53 90 49 88
213 369 236 407 14 22 34 56 44 73 10 18 19 31 21 29 2 -2 77 -130 166 -284z"/>
<path d="M1224 2762 c-11 -20 -68 -118 -126 -217 -174 -298 -269 -467 -264
-472 3 -3 231 -4 813 -3 21 0 21 2 -14 63 -19 34 -48 85 -63 113 -16 28 -66
116 -113 195 -46 79 -95 162 -107 184 -38 66 -102 175 -104 175 0 0 -10 -17
-22 -38z"/>
<path d="M2755 2769 c-10 -19 -38 -68 -63 -109 -25 -41 -62 -104 -82 -140 -42
-74 -64 -113 -107 -186 -17 -27 -43 -72 -58 -100 -15 -27 -42 -76 -61 -109
l-33 -60 416 2 c228 1 417 4 420 6 2 3 -15 38 -38 79 -23 40 -55 98 -72 128
-16 30 -40 72 -53 92 -13 21 -24 40 -24 42 0 3 -22 41 -50 86 -27 45 -50 83
-50 85 0 2 -29 52 -64 110 l-64 107 -17 -33z"/>
<path d="M2000 1470 c0 -6 -11 -27 -23 -48 -13 -20 -58 -95 -99 -167 -83 -143
-158 -273 -237 -408 -28 -49 -51 -90 -51 -93 0 -2 189 -4 420 -4 389 0 445 3
410 25 -6 4 -22 27 -35 53 -34 64 -60 109 -72 124 -6 7 -23 38 -39 68 -16 30
-31 57 -35 60 -3 3 -19 30 -36 60 -16 30 -48 87 -71 127 -23 39 -50 87 -60
105 -59 103 -72 121 -72 98z"/>
</g>
</svg>
