<?xml version="1.0" encoding="iso-8859-1"?>
<!-- Generator: Adobe Illustrator 24.0.1, SVG Export Plug-In . SVG Version: 6.00 Build 0)  -->
<svg version="1.1" xmlns="http://www.w3.org/2000/svg" xmlns:xlink="http://www.w3.org/1999/xlink" x="0px" y="0px"
	 viewBox="0 0 70 70" style="enable-background:new 0 0 70 70;" xml:space="preserve">
<g id="BACS">
	<g>
		<polygon style="fill:#000;" points="64.109,64.359 64.109,59.718 5.891,59.718 5.891,64.359 1,64.359 1,69 69,69 69,64.359 		
			"/>
		<path style="fill:#000;" d="M4.74,25.102h1.151v4.641h58.218v-4.641h1.151c3.861,0,5.182-5.145,1.799-7.005L36.799,1.462
			c-1.12-0.616-2.477-0.616-3.597,0L2.941,18.097C-0.443,19.957,0.878,25.102,4.74,25.102z M35,6.929
			c3.381,0,6.122,2.741,6.122,6.122c0,3.381-2.741,6.123-6.122,6.123c-3.381,0-6.122-2.741-6.122-6.123
			C28.878,9.67,31.619,6.929,35,6.929z"/>
		<polygon style="fill:#000;" points="19.947,31.916 10.545,31.916 12.731,35 12.731,54.461 10.545,57.545 19.947,57.545 
			17.761,54.461 17.761,35 		"/>
		<polygon style="fill:#000;" points="39.701,31.916 30.299,31.916 32.485,35 32.485,54.461 30.299,57.545 39.701,57.545 
			37.515,54.461 37.515,35 		"/>
		<polygon style="fill:#000;" points="59.455,31.916 50.053,31.916 52.239,35 52.239,54.461 50.053,57.545 59.455,57.545 
			57.269,54.461 57.269,35 		"/>
	</g>
</g>
<g id="Layer_1">
</g>
</svg>
