<?xml version="1.0" encoding="iso-8859-1"?>
<!-- Generator: Adobe Illustrator 24.0.1, SVG Export Plug-In . SVG Version: 6.00 Build 0)  -->
<svg version="1.1" xmlns="http://www.w3.org/2000/svg" xmlns:xlink="http://www.w3.org/1999/xlink" x="0px" y="0px"
	 viewBox="0 0 70 70" style="enable-background:new 0 0 70 70;" xml:space="preserve">
<g id="Bodywork">
	<g>
		<path style="fill:#8FB1C6;" d="M61.705,35.767V7.644C61.705,3.974,58.731,1,55.061,1H14.939c-3.669,0-6.644,2.974-6.644,6.644
			v28.124H61.705z"/>
		<path style="fill:#8FB1C6;" d="M8.295,38.662v7.02c0,3.662,2.982,6.644,6.644,6.644h12.115v8.207c0,4.675,3.792,8.467,8.467,8.467
			c2.33,0,4.458-0.955,5.992-2.475c1.52-1.534,2.475-3.662,2.475-5.992v-7.686h11.073c3.662,0,6.644-2.967,6.644-6.644v-7.541H8.295
			z M35.564,62.921c-1.636,0-2.953-1.317-2.953-2.953s1.317-2.953,2.953-2.953s2.953,1.317,2.953,2.953S37.2,62.921,35.564,62.921z"
			/>
	</g>
</g>
<g id="Layer_1">
</g>
</svg>
