<?xml version="1.0" encoding="iso-8859-1"?>
<!-- Generator: Adobe Illustrator 24.0.1, SVG Export Plug-In . SVG Version: 6.00 Build 0)  -->
<svg version="1.1" xmlns="http://www.w3.org/2000/svg" xmlns:xlink="http://www.w3.org/1999/xlink" x="0px" y="0px"
	 viewBox="0 0 70 70" style="enable-background:new 0 0 70 70;" xml:space="preserve">
<g id="CAsh">
	<g>
		<path style="fill:#000;" d="M65.464,57.605H4.536C2.583,57.605,1,56.022,1,54.07V15.93c0-1.953,1.583-3.536,3.536-3.536h60.929
			c1.953,0,3.536,1.583,3.536,3.536v38.14C69,56.022,67.417,57.605,65.464,57.605z"/>
		<path style="fill:#FFFFFF;" d="M64.406,21.201v28.242c-1.501,0.827-2.742,2.068-3.569,3.569H9.162
			c-0.827-1.501-2.068-2.741-3.569-3.569V21.201c1.7-0.95,3.078-2.42,3.89-4.212h51.032C61.328,18.781,62.706,20.251,64.406,21.201z
			"/>
		<circle style="fill:#000;" cx="34.622" cy="35" r="15.232"/>
		<path style="fill:#FFFFFF;" d="M26.163,44.886v-2.455l0.239-0.247c2.543-2.615,2.677-4.44,2.473-5.88l-0.011-0.078h-2.701v-2.902
			h1.994l-0.028-0.113c-0.235-0.934-0.476-2.072-0.476-3.427c0-3.913,2.97-6.441,7.566-6.441c4.549,0,7.173,2.161,7.201,5.929
			l0.006,0.853h-2.985l-0.007-0.838c-0.018-1.99-1.397-2.957-4.215-2.957c-2.857,0-4.495,1.26-4.495,3.455
			c0,1.092,0.265,2.201,0.522,3.273l0.064,0.266h7.455v2.902h-6.901l0.01,0.099c0.21,2.113-0.178,3.821-1.222,5.377l-0.095,0.141
			h12.06v3.043H26.163z"/>
	</g>
</g>
<g id="Layer_1">
</g>
</svg>
