<?xml version="1.0" encoding="iso-8859-1"?>
<!-- Generator: Adobe Illustrator 24.0.1, SVG Export Plug-In . SVG Version: 6.00 Build 0)  -->
<svg version="1.1" xmlns="http://www.w3.org/2000/svg" xmlns:xlink="http://www.w3.org/1999/xlink" x="0px" y="0px"
	 viewBox="0 0 70 70" style="enable-background:new 0 0 70 70;" xml:space="preserve">
<g id="Credit_card">
	<g>
		<path style="fill:#000;" d="M61.978,57.814H8.022C4.144,57.814,1,54.671,1,50.793V19.207c0-3.878,3.144-7.022,7.022-7.022
			h53.957c3.878,0,7.022,3.144,7.022,7.022v31.586C69,54.671,65.856,57.814,61.978,57.814z"/>
		<path style="fill:#FFFFFF;" d="M64.421,19.095v31.809c0,1.326-1.08,2.403-2.406,2.403H7.985c-1.326,0-2.406-1.077-2.406-2.403
			V19.095c0-1.326,1.08-2.403,2.406-2.403h54.03C63.341,16.693,64.421,17.769,64.421,19.095z"/>
		<rect x="5.579" y="22.767" style="fill:#000;" width="58.843" height="8.606"/>
		<path style="fill:#000;" d="M37.897,44.273h-4.342c-1.148,0-2.079-0.931-2.079-2.079v0c0-1.148,0.931-2.079,2.079-2.079h4.342
			c1.148,0,2.079,0.931,2.079,2.079v0C39.976,43.342,39.045,44.273,37.897,44.273z"/>
		<path style="fill:#000;" d="M47.961,44.273h-4.342c-1.148,0-2.079-0.931-2.079-2.079v0c0-1.148,0.931-2.079,2.079-2.079h4.342
			c1.148,0,2.079,0.931,2.079,2.079v0C50.04,43.342,49.109,44.273,47.961,44.273z"/>
		<path style="fill:#000;" d="M58.025,44.273h-4.342c-1.148,0-2.079-0.931-2.079-2.079v0c0-1.148,0.931-2.079,2.079-2.079h4.342
			c1.148,0,2.079,0.931,2.079,2.079v0C60.104,43.342,59.173,44.273,58.025,44.273z"/>
		<g>
			<path style="fill:#000;" d="M13.044,42.571c0-2.234,1.059-4.221,2.697-5.5c-0.617-0.221-1.278-0.348-1.971-0.348
				c-3.23,0-5.848,2.618-5.848,5.848c0,3.23,2.618,5.848,5.848,5.848c0.693,0,1.355-0.127,1.971-0.348
				C14.102,46.793,13.044,44.806,13.044,42.571z"/>
			<circle style="fill:#000;" cx="20.025" cy="42.572" r="5.848"/>
		</g>
	</g>
</g>
<g id="Layer_1">
</g>
</svg>
