<?xml version="1.0" encoding="iso-8859-1"?>
<!-- Generator: Adobe Illustrator 24.0.1, SVG Export Plug-In . SVG Version: 6.00 Build 0)  -->
<svg version="1.1" xmlns="http://www.w3.org/2000/svg" xmlns:xlink="http://www.w3.org/1999/xlink" x="0px" y="0px"
	 viewBox="0 0 70 70" style="enable-background:new 0 0 70 70;" xml:space="preserve">
<g id="Recovery">
	<g>
		<path style="fill:#FC7406;" d="M68.35,57.86L39.17,7.32c-1.85-3.2-6.49-3.2-8.33,0L1.65,57.86c-1.85,3.22,0.47,7.22,4.17,7.22
			h58.35C67.89,65.08,70.2,61.08,68.35,57.86z M34.64,57.45c-2.49,0-4.53-2.03-4.53-4.53s2.04-4.53,4.53-4.53
			c2.5,0,4.53,2.03,4.53,4.53S37.14,57.45,34.64,57.45z M39.08,44.91h-8.19l-1.21-18.98h9.92L39.08,44.91z"/>
		
			<ellipse transform="matrix(0.7071 -0.7071 0.7071 0.7071 -27.2743 39.9941)" style="fill:#FFFFFF;" cx="34.64" cy="52.92" rx="4.53" ry="4.53"/>
		<polygon style="fill:#FFFFFF;" points="39.6,25.93 39.08,44.91 30.89,44.91 29.68,25.93 		"/>
	</g>
</g>
<g id="Layer_1">
</g>
</svg>
