<?xml version="1.0" encoding="iso-8859-1"?>
<!-- Generator: Adobe Illustrator 24.0.1, SVG Export Plug-In . SVG Version: 6.00 Build 0)  -->
<svg version="1.1" xmlns="http://www.w3.org/2000/svg" xmlns:xlink="http://www.w3.org/1999/xlink" x="0px" y="0px"
	 viewBox="0 0 70 70" style="enable-background:new 0 0 70 70;" xml:space="preserve">
<g id="Refreshments">
	<g>
		<path d="M5.205,26.012h51.259v5.437c0,14.155-11.475,25.629-25.629,25.629h0c-14.155,0-25.629-11.475-25.629-25.629V26.012z"/>
		<path d="M26.686,3.394c1.012,1.291,1.811,2.785,2.194,4.433c0.187,0.823,0.249,1.692,0.122,2.556
			c-0.126,0.861-0.443,1.714-0.935,2.45c-0.255,0.384-0.479,0.682-0.717,1.022c-0.224,0.336-0.461,0.665-0.668,1.006
			c-0.431,0.674-0.824,1.367-1.1,2.064c-0.286,0.696-0.402,1.392-0.281,1.967c0.123,0.573,0.507,1.085,1.032,1.563l-1.339,1.339
			c-0.31-0.356-0.617-0.727-0.855-1.181c-0.254-0.435-0.411-0.96-0.477-1.477c-0.105-1.062,0.221-2.02,0.628-2.801
			c0.409-0.796,0.906-1.492,1.424-2.156c0.254-0.338,0.528-0.652,0.793-0.975c0.265-0.309,0.566-0.642,0.792-0.924
			c0.48-0.586,0.821-1.283,1.006-2.031C28.49,9.5,28.516,8.7,28.414,7.909C28.205,6.324,27.57,4.773,26.686,3.394z"/>
		<path d="M35.665,3.394c1.012,1.291,1.811,2.785,2.194,4.433c0.187,0.823,0.249,1.692,0.122,2.556
			c-0.125,0.861-0.443,1.714-0.935,2.45c-0.255,0.384-0.479,0.682-0.717,1.022c-0.224,0.336-0.461,0.665-0.668,1.006
			c-0.431,0.674-0.824,1.367-1.1,2.064c-0.286,0.696-0.402,1.392-0.281,1.967c0.123,0.573,0.507,1.085,1.032,1.563l-1.339,1.339
			c-0.31-0.356-0.617-0.727-0.855-1.181c-0.254-0.435-0.411-0.96-0.477-1.477c-0.105-1.062,0.221-2.02,0.628-2.801
			c0.409-0.796,0.906-1.492,1.424-2.156c0.254-0.338,0.528-0.652,0.793-0.975c0.265-0.309,0.566-0.642,0.792-0.924
			c0.48-0.586,0.821-1.283,1.006-2.031c0.185-0.749,0.211-1.549,0.109-2.34C37.184,6.324,36.549,4.773,35.665,3.394z"/>
		<g>
			<path d="M57.6,48.89h-9.092v-4.387H57.6c3.867,0,7.012-3.146,7.012-7.012c0-3.867-3.146-7.013-7.012-7.013h-1.478v-4.387H57.6
				c6.286,0,11.4,5.114,11.4,11.4S63.886,48.89,57.6,48.89z"/>
		</g>
		<path d="M1,61.813h59.555v0c0,2.647-2.146,4.792-4.792,4.792H5.792C3.146,66.606,1,64.46,1,61.813L1,61.813z"/>
	</g>
</g>
<g id="Layer_1">
</g>
</svg>
