<?xml version="1.0" encoding="iso-8859-1"?>
<!-- Generator: Adobe Illustrator 24.0.1, SVG Export Plug-In . SVG Version: 6.00 Build 0)  -->
<svg version="1.1" xmlns="http://www.w3.org/2000/svg" xmlns:xlink="http://www.w3.org/1999/xlink" x="0px" y="0px"
	 viewBox="0 0 70 70" style="enable-background:new 0 0 70 70;" xml:space="preserve">
<g id="Restrooms">
	<g>
		<path d="M1,34.962c0.599-1.924,1.207-3.846,1.796-5.774c0.933-3.05,1.848-6.106,2.78-9.156c0.837-2.74,3.416-4.666,6.284-4.684
			c2.304-0.015,4.609-0.01,6.913-0.001c2.862,0.012,5.524,1.923,6.381,4.668c1.394,4.468,2.732,8.954,4.093,13.433
			c0.164,0.54,0.37,1.073,0.475,1.624c0.217,1.136-0.538,2.402-1.495,2.592c-1.365,0.27-2.288-0.349-2.682-1.685
			c-1.281-4.344-2.593-8.679-3.892-13.018c-0.23-0.769-0.804-0.247-1.299-0.448c2.315,7.947,4.593,15.764,6.891,23.653
			c-2.141,0-4.224,0-6.395,0c0,0.297,0,0.535,0,0.773c0,5.573,0.001,11.145-0.003,16.718c0,0.338,0.002,0.686-0.07,1.014
			c-0.264,1.197-1.217,1.768-2.747,1.68c-0.968-0.056-1.814-0.919-1.93-1.987c-0.028-0.262-0.02-0.528-0.02-0.792
			c-0.001-5.573,0-11.145,0-16.718c0-0.202,0-0.404,0-0.638c-0.492,0-0.919,0-1.437,0c0,0.24,0,0.478,0,0.715
			c0,5.554,0.002,11.107-0.004,16.661c0,0.394-0.006,0.803-0.106,1.179c-0.312,1.175-1.369,1.746-2.825,1.576
			c-0.966-0.113-1.757-1.001-1.844-2.081c-0.017-0.207-0.011-0.415-0.011-0.623c0-5.573,0-11.145,0-16.718c0-0.222,0-0.445,0-0.733
			c-2.137,0-4.222,0-6.369,0c2.278-7.903,4.534-15.728,6.791-23.559c-1.013-0.189-1.024-0.184-1.284,0.69
			c-1.237,4.161-2.471,8.323-3.71,12.483c-0.427,1.434-1.371,2.114-2.596,1.877C1.791,37.51,1.33,36.871,1,36.096
			C1,35.718,1,35.34,1,34.962z"/>
		<path d="M69,38.363c-0.672,1.418-1.559,1.939-2.762,1.614c-0.872-0.236-1.386-0.814-1.546-1.693
			c-0.057-0.313-0.058-0.639-0.058-0.959c-0.003-4.477-0.001-8.953-0.002-13.43c0-0.167-0.016-0.333-0.026-0.536
			c-0.327,0-0.621,0-1.015,0c0,0.253,0,0.508,0,0.763c0,12.939,0,25.878-0.004,38.817c0,0.395-0.004,0.8-0.09,1.182
			c-0.316,1.402-1.583,2.293-3.031,2.169c-1.598-0.137-2.668-1.203-2.774-2.768c-0.013-0.188-0.006-0.378-0.006-0.566
			c0-7.442,0-14.885,0-22.327c0-0.223,0-0.446,0-0.706c-0.347,0-0.64,0-1.029,0c0,0.223,0,0.44,0,0.656
			c0,7.556,0.004,15.111-0.003,22.667c-0.002,2.189-1.892,3.565-3.944,2.895c-1.129-0.369-1.837-1.326-1.923-2.61
			c-0.015-0.226-0.009-0.453-0.008-0.68c0.002-8.292,0.006-16.585,0.007-24.877c0-4.682-0.004-9.363-0.008-14.045
			c0-0.183-0.017-0.366-0.027-0.578c-0.337,0-0.632,0-0.989,0c-0.012,0.185-0.033,0.365-0.034,0.544
			c-0.008,3.324-0.015,6.649-0.019,9.973c-0.001,1.318,0.01,2.636,0.009,3.953c-0.001,1.244-0.885,2.173-2.102,2.222
			c-1.255,0.05-2.242-0.813-2.275-2.086c-0.045-1.752-0.025-3.506-0.026-5.258c-0.002-3.589-0.015-7.178,0.005-10.767
			c0.018-3.27,2.219-5.921,5.376-6.506c0.423-0.078,0.864-0.09,1.296-0.091c3.437-0.005,6.875,0.001,10.312,0.004
			c3.209,0.003,5.724,1.972,6.504,5.093c0.059,0.236,0.129,0.469,0.193,0.703C69,26.877,69,32.62,69,38.363z"/>
		<path d="M16.073,3.679c0.157,0.05,0.312,0.11,0.473,0.148c2.548,0.603,4.242,3.019,3.917,5.587
			c-0.326,2.572-2.505,4.482-5.095,4.465c-2.607-0.017-4.753-1.978-5.031-4.598c-0.27-2.54,1.465-4.907,4.005-5.468
			c0.164-0.036,0.324-0.089,0.486-0.134C15.242,3.679,15.658,3.679,16.073,3.679z"/>
		<path d="M57.78,3.679c0.178,0.052,0.353,0.112,0.533,0.155c2.572,0.62,4.204,3,3.878,5.659c-0.306,2.497-2.536,4.413-5.103,4.386
			c-2.541-0.027-4.73-1.985-4.983-4.455c-0.275-2.686,1.372-5.023,3.949-5.607c0.162-0.037,0.32-0.092,0.48-0.139
			C56.949,3.679,57.364,3.679,57.78,3.679z"/>
		<g>
			<rect x="34.713" y="2.925" width="4.533" height="64.151"/>
		</g>
	</g>
</g>
<g id="Layer_1">
</g>
</svg>
