<?xml version="1.0" encoding="iso-8859-1"?>
<!-- Generator: Adobe Illustrator 24.0.1, SVG Export Plug-In . SVG Version: 6.00 Build 0)  -->
<svg version="1.1" xmlns="http://www.w3.org/2000/svg" xmlns:xlink="http://www.w3.org/1999/xlink" x="0px" y="0px"
	 viewBox="0 0 70 70" style="enable-background:new 0 0 70 70;" xml:space="preserve">
<g id="Servicing">
	<g>
		<path style="fill:#00B711;" d="M67.668,25.201H65.28c-0.146,0-0.291,0.029-0.422,0.073l-20.136,6.712
			c-0.961,0.32-2.009,0.233-2.926-0.218l-2.97-1.485c-0.932-0.466-1.98-0.713-3.028-0.713H17.015l-5.722-2.082
			c-0.874-0.32-1.762-0.466-2.635-0.466C4.596,27.021,1,30.312,1,34.694c0,3.072,1.835,5.853,4.644,7.061l5.547,2.373v2.883
			c0,2.431,1.965,4.397,4.397,4.397h23.266c3.727,0,7.309-1.485,9.944-4.12l19.815-19.815
			C69.444,26.643,68.847,25.201,67.668,25.201z M8.6,38.305c-1.893,0-3.436-1.543-3.436-3.436c0-1.893,1.543-3.436,3.436-3.436
			c1.893,0,3.436,1.543,3.436,3.436C12.036,36.762,10.493,38.305,8.6,38.305z"/>
		<rect x="25.751" y="23.745" style="fill:#00B711;" width="5.824" height="5.824"/>
		<path style="fill:#00B711;" d="M20.728,18.097h15.164c1.584,0,2.868,1.284,2.868,2.868v0c0,1.584-1.284,2.868-2.868,2.868H20.728
			c-1.584,0-2.868-1.284-2.868-2.868v0C17.86,19.381,19.144,18.097,20.728,18.097z"/>
		<path style="fill:#00B711;" d="M68.308,47.055c0,2.678-2.171,4.848-4.848,4.848c-2.678,0-4.848-2.171-4.848-4.848
			s4.848-9.216,4.848-9.216S68.308,44.377,68.308,47.055z"/>
	</g>
</g>
<g id="Layer_1">
</g>
</svg>
