<?xml version="1.0" encoding="iso-8859-1"?>
<!-- Generator: Adobe Illustrator 24.0.1, SVG Export Plug-In . SVG Version: 6.00 Build 0)  -->
<svg version="1.1" xmlns="http://www.w3.org/2000/svg" xmlns:xlink="http://www.w3.org/1999/xlink" x="0px" y="0px"
	 viewBox="0 0 70 70" style="enable-background:new 0 0 70 70;" xml:space="preserve">
<g id="Viewing_Area">
	<g>
		<g>
			<path d="M66.875,57.49H3.125C1.951,57.49,1,56.538,1,55.365V14.635c0-1.174,0.951-2.125,2.125-2.125h63.75
				c1.174,0,2.125,0.951,2.125,2.125v40.729C69,56.538,68.049,57.49,66.875,57.49z M5.25,53.24h59.5V16.76H5.25V53.24z"/>
		</g>
		<g>
			<path d="M9.225,29.811c-0.157,0-0.315-0.06-0.435-0.18c-0.24-0.24-0.24-0.629,0-0.87L17.25,20.3c0.24-0.24,0.629-0.24,0.87,0
				c0.24,0.24,0.24,0.629,0,0.87L9.659,29.63C9.539,29.75,9.382,29.811,9.225,29.811z"/>
		</g>
		<g>
			<path d="M52.905,51.061c-0.157,0-0.315-0.06-0.435-0.18c-0.24-0.24-0.24-0.629,0-0.87l8.461-8.461c0.24-0.24,0.629-0.24,0.87,0
				c0.24,0.24,0.24,0.629,0,0.87L53.34,50.88C53.22,51,53.062,51.061,52.905,51.061z"/>
		</g>
		<path d="M49.363,34.902c0,0-6.166,6.559-13.773,6.559s-13.773-6.559-13.773-6.559s6.166-6.559,13.773-6.559
			S49.363,34.902,49.363,34.902z"/>
		<circle style="fill:#FFFFFF;" cx="34.803" cy="35" r="4.624"/>
		<circle cx="35" cy="34.797" r="2.263"/>
	</g>
</g>
<g id="Layer_1">
</g>
</svg>
